<mxfile host="app.diagrams.net" agent="Mozilla/5.0 (Macintosh; Intel Mac OS X 10_15_7) AppleWebKit/537.36 (KHTML, like Gecko) Chrome/131.0.0.0 Safari/537.36" version="26.0.10">
  <diagram name="第 1 页" id="KMdVEAsDgycOJ4zT3drV">
    <mxGraphModel dx="1026" dy="650" grid="1" gridSize="10" guides="1" tooltips="1" connect="1" arrows="1" fold="1" page="1" pageScale="1" pageWidth="827" pageHeight="1169" math="0" shadow="0">
      <root>
        <mxCell id="0" />
        <mxCell id="1" parent="0" />
        <mxCell id="BT2NgeinofUzeferAk7I-2" value="" style="rounded=1;whiteSpace=wrap;html=1;" vertex="1" parent="1">
          <mxGeometry x="80" y="310" width="690" height="260" as="geometry" />
        </mxCell>
        <mxCell id="BT2NgeinofUzeferAk7I-12" value="" style="edgeStyle=orthogonalEdgeStyle;rounded=0;orthogonalLoop=1;jettySize=auto;html=1;" edge="1" parent="1" source="BT2NgeinofUzeferAk7I-3" target="BT2NgeinofUzeferAk7I-11">
          <mxGeometry relative="1" as="geometry" />
        </mxCell>
        <mxCell id="BT2NgeinofUzeferAk7I-3" value="建立连接&lt;div&gt;（id，conn）&lt;/div&gt;&lt;div&gt;id使用的自增id&lt;/div&gt;&lt;div&gt;异步监听：将包写入player的data的字节包中&lt;/div&gt;" style="rounded=1;whiteSpace=wrap;html=1;" vertex="1" parent="1">
          <mxGeometry x="100" y="330" width="110" height="120" as="geometry" />
        </mxCell>
        <mxCell id="BT2NgeinofUzeferAk7I-4" value="" style="rounded=1;whiteSpace=wrap;html=1;" vertex="1" parent="1">
          <mxGeometry x="80" y="30" width="690" height="250" as="geometry" />
        </mxCell>
        <mxCell id="BT2NgeinofUzeferAk7I-5" value="client" style="text;html=1;align=center;verticalAlign=middle;whiteSpace=wrap;rounded=0;" vertex="1" parent="1">
          <mxGeometry x="20" y="145" width="60" height="30" as="geometry" />
        </mxCell>
        <mxCell id="BT2NgeinofUzeferAk7I-6" value="server" style="text;html=1;align=center;verticalAlign=middle;whiteSpace=wrap;rounded=0;" vertex="1" parent="1">
          <mxGeometry x="20" y="415" width="60" height="30" as="geometry" />
        </mxCell>
        <mxCell id="BT2NgeinofUzeferAk7I-8" value="" style="edgeStyle=orthogonalEdgeStyle;rounded=0;orthogonalLoop=1;jettySize=auto;html=1;" edge="1" parent="1" source="BT2NgeinofUzeferAk7I-7" target="BT2NgeinofUzeferAk7I-3">
          <mxGeometry relative="1" as="geometry" />
        </mxCell>
        <mxCell id="BT2NgeinofUzeferAk7I-7" value="建立连接" style="rounded=1;whiteSpace=wrap;html=1;" vertex="1" parent="1">
          <mxGeometry x="95" y="125" width="120" height="60" as="geometry" />
        </mxCell>
        <mxCell id="BT2NgeinofUzeferAk7I-10" value="包&lt;div&gt;&lt;br&gt;&lt;/div&gt;" style="text;html=1;align=center;verticalAlign=middle;whiteSpace=wrap;rounded=0;" vertex="1" parent="1">
          <mxGeometry x="155" y="210" width="65" height="50" as="geometry" />
        </mxCell>
        <mxCell id="BT2NgeinofUzeferAk7I-14" value="" style="edgeStyle=orthogonalEdgeStyle;rounded=0;orthogonalLoop=1;jettySize=auto;html=1;" edge="1" parent="1" source="BT2NgeinofUzeferAk7I-11" target="BT2NgeinofUzeferAk7I-13">
          <mxGeometry relative="1" as="geometry" />
        </mxCell>
        <mxCell id="BT2NgeinofUzeferAk7I-19" value="" style="edgeStyle=orthogonalEdgeStyle;rounded=0;orthogonalLoop=1;jettySize=auto;html=1;" edge="1" parent="1" source="BT2NgeinofUzeferAk7I-11" target="BT2NgeinofUzeferAk7I-18">
          <mxGeometry relative="1" as="geometry" />
        </mxCell>
        <mxCell id="BT2NgeinofUzeferAk7I-11" value="进入welcome阶段&lt;div&gt;写欢迎信息，请求创建还是加入&lt;/div&gt;" style="whiteSpace=wrap;html=1;rounded=1;" vertex="1" parent="1">
          <mxGeometry x="270" y="360" width="120" height="60" as="geometry" />
        </mxCell>
        <mxCell id="BT2NgeinofUzeferAk7I-13" value="初始化一个room加入，进入等待状态" style="whiteSpace=wrap;html=1;rounded=1;" vertex="1" parent="1">
          <mxGeometry x="270" y="480" width="120" height="60" as="geometry" />
        </mxCell>
        <mxCell id="BT2NgeinofUzeferAk7I-17" value="创建" style="text;html=1;align=center;verticalAlign=middle;whiteSpace=wrap;rounded=0;" vertex="1" parent="1">
          <mxGeometry x="320" y="430" width="60" height="30" as="geometry" />
        </mxCell>
        <mxCell id="BT2NgeinofUzeferAk7I-18" value="" style="whiteSpace=wrap;html=1;rounded=1;" vertex="1" parent="1">
          <mxGeometry x="470" y="360" width="120" height="60" as="geometry" />
        </mxCell>
        <mxCell id="BT2NgeinofUzeferAk7I-20" value="加入" style="text;html=1;align=center;verticalAlign=middle;whiteSpace=wrap;rounded=0;" vertex="1" parent="1">
          <mxGeometry x="400" y="360" width="60" height="30" as="geometry" />
        </mxCell>
      </root>
    </mxGraphModel>
  </diagram>
</mxfile>
